<?xml version="1.0" encoding="UTF-8"?>
<svg width="512" height="512" version="1.1" viewBox="0 0 512 512" xmlns="http://www.w3.org/2000/svg" xmlns:xlink="http://www.w3.org/1999/xlink">
 <g>
  <g>
   <path d="m185.58 324.88h169.48a17.388 17.388 0 0 0 17.388-17.388v-196.66a17.388 17.388 0 0 0-17.388-17.388h-270.96a17.388 17.388 0 0 0-17.388 17.388v196.66a17.388 17.388 0 0 0 17.388 17.388h24.343a5.796 5.796 0 0 1 5.796 5.796v49.179a5.796 5.796 0 0 0 5.8366 5.796 5.6975 5.6975 0 0 0 4.0572-1.7098l57.38-57.38a5.796 5.796 0 0 1 4.063-1.6808z" fill="#000000" stroke-width=".5796" style="isolation:isolate"/>
   <g transform="matrix(.5796 0 0 .5796 66.717 93.438)" fill="#ffffff">
    <path d="m160.43 213c-32.24-20-38.9-71.83-10.42-97.83 18.42-7.6 32.4 12.85 36.62 28.25 10.32 17.45 12.59 41-3.16 56.08a42.81 42.81 0 0 1-23.04 13.5z" style="isolation:isolate"/>
    <path d="m348.22 213.86c-21.73-15.31-45.37-29.75-71.77-35.15-33.1-4.41-70.73 5.36-91.7 32.87-14.83 14.32-18.34 36.94-5.49 53.76 8.52 19.48 5.59 45.78 28.23 56.94 16 15.83 40 1.27 56.32 14.21a7.6 7.6 0 0 0 5.59-5.05c-4.25-31.33 29.21-16.95 45.66-14.61 19.77-11.71 25.43-36.14 34.75-55.58 12.55-13.83 15-35.25-1.59-47.39z" style="isolation:isolate"/>
    <path d="m367 118.1c-21.87 2.52-29.89 28.17-40.34 44.42-10.67 20.94 12.26 38.77 28.48 47.89a19.63 19.63 0 0 0 13-1.07c18.86-10.12 26.86-33.43 27.34-53.79 0.24-16.78-8.3-38.93-28.48-37.45z" style="isolation:isolate"/>
    <path d="m218.7 176c-24-14.47-25.38-45.76-27.32-70.65-0.38-24 35.23-45.5 49.43-20.14 9.8 20.9 21.47 45.47 12.47 68.66-5.68 13.77-20.93 19.73-34.58 22.13z" style="isolation:isolate"/>
    <path d="m306.18 175.87c-28.48 0.84-43.29-32.4-35.93-56.83 0.17-19.58 7.31-53.56 33.53-48.18 28.29 10.94 34.3 49.46 20.82 74.07-6.77 10-6.2 25.11-18.42 30.94z" style="isolation:isolate"/>
   </g>
  </g>
  <path d="m433.69 224.23h-46.751a5.796 5.796 0 0 0-5.796 5.796v77.464a26.082 26.082 0 0 1-26.082 26.082h-107.34a5.796 5.796 0 0 0-5.796 5.796v27.241a11.592 11.592 0 0 0 11.563 11.592h112.71a3.8543 3.8543 0 0 1 2.7241 1.1302l38.155 38.103a3.8543 3.8543 0 0 0 6.5785-2.7241v-32.707a3.8543 3.8543 0 0 1 3.8543-3.8543h16.171a11.592 11.592 0 0 0 11.592-11.592v-130.76a11.592 11.592 0 0 0-11.592-11.563z" fill="#000000" stroke-width=".5796" style="isolation:isolate"/>
 </g>
</svg>
