<?xml version="1.0" encoding="UTF-8"?>
<svg id="Layer_1" data-name="Layer 1" xmlns="http://www.w3.org/2000/svg" xmlns:xlink="http://www.w3.org/1999/xlink" viewBox="0 0 715.62 494.67">
  <defs>
    <radialGradient id="radial-gradient" cx="375.98" cy="-12.21" fx="375.98" fy="-12.21" r="497.2" gradientTransform="translate(0 496) scale(1 -1)" gradientUnits="userSpaceOnUse">
      <stop offset="0" stop-color="#fc00ff"/>
      <stop offset="0" stop-color="#d327fe"/>
      <stop offset="0" stop-color="#af4afc"/>
      <stop offset="0" stop-color="#8f69fb"/>
      <stop offset="0" stop-color="#7384fa"/>
      <stop offset="0" stop-color="#5d99f9"/>
      <stop offset="0" stop-color="#4ca9f9"/>
      <stop offset="0" stop-color="#41b5f8"/>
      <stop offset="0" stop-color="#3abbf8"/>
      <stop offset="0" stop-color="#38bdf8"/>
      <stop offset=".07" stop-color="#31a6f9"/>
      <stop offset=".24" stop-color="#2274fb"/>
      <stop offset=".41" stop-color="#164afc"/>
      <stop offset=".57" stop-color="#0c2afd"/>
      <stop offset=".73" stop-color="#0613fe"/>
      <stop offset=".87" stop-color="#0105ff"/>
      <stop offset="1" stop-color="blue"/>
    </radialGradient>
    <radialGradient id="radial-gradient-2" cx="-32.67" cy="158.04" fx="-32.67" fy="158.04" r="497.2" gradientTransform="translate(340.29 396.4) rotate(-39.31) scale(1 -1.17)" gradientUnits="userSpaceOnUse">
      <stop offset="0" stop-color="#fc00ff"/>
      <stop offset="0" stop-color="#fa00ff"/>
      <stop offset="0" stop-color="#f800ff"/>
      <stop offset="0" stop-color="#38bdf8"/>
      <stop offset=".11" stop-color="#2f9ef9"/>
      <stop offset=".34" stop-color="#1e66fb"/>
      <stop offset=".55" stop-color="#113afd"/>
      <stop offset=".74" stop-color="#081afe"/>
      <stop offset=".89" stop-color="#0207ff"/>
      <stop offset="1" stop-color="blue"/>
    </radialGradient>
    <linearGradient id="linear-gradient" x1="159.14" y1="78.07" x2="347.74" y2="266.67" gradientUnits="userSpaceOnUse">
      <stop offset="0" stop-color="#4ba2ea"/>
      <stop offset="1" stop-color="#235ea5"/>
    </linearGradient>
  </defs>
  <g>
    <path d="m641.06,74.17h-89.45c-8.23,0-14.91,5.54-14.91,12.37s6.68,12.37,14.91,12.37h89.45c24.66,0,44.73,16.65,44.73,37.1v222.6c0,20.45-20.07,37.1-44.73,37.1h-59.63c-8.23,0-14.91,5.54-14.91,12.37v49.47l-95.41-59.36c-2.56-1.61-5.72-2.47-8.94-2.47h-178.9c-9.24,0-18.22-2.42-25.97-7.02-6.62-3.98-15.98-2.72-20.78,2.84-4.8,5.57-3.28,13.28,3.43,17.26,12.82,7.64,27.79,11.67,43.32,11.67h173.92l115.3,71.73c2.62,1.63,5.78,2.47,8.95,2.47,2.27,0,4.56-.45,6.68-1.34,5.04-2.1,8.23-6.38,8.23-11.06v-61.83h44.73c41.12,0,74.54-27.75,74.54-61.83v-222.6c-.02-34.08-33.44-61.84-74.56-61.84Z" style="fill: url(#radial-gradient);"/>
    <path d="m432.34,346.27c41.12,0,74.54-27.75,74.54-61.83V61.83c0-34.08-33.42-61.83-74.54-61.83H74.54C33.42,0,0,27.75,0,61.83v222.6c0,34.08,33.42,61.83,74.54,61.83h44.73v61.83c0,4.67,3.19,8.95,8.23,11.06,2.12.87,4.41,1.31,6.68,1.31,3.16,0,6.32-.84,8.95-2.47l115.3-71.73h173.91Zm-187.84-22.25l-95.41,59.36v-49.47c0-6.83-6.68-12.37-14.91-12.37h-59.64c-24.66,0-44.73-16.65-44.73-37.1V61.83c0-20.45,20.07-37.1,44.73-37.1h357.8c24.66,0,44.73,16.65,44.73,37.1v222.6c0,20.45-20.07,37.1-44.73,37.1h-178.9c-3.25,0-6.38.87-8.94,2.48Z" style="fill: url(#radial-gradient-2);"/>
  </g>
  <circle cx="253.44" cy="172.37" r="133.36" style="fill: url(#linear-gradient);"/>
  <circle cx="193.83" cy="172.37" r="19.89" style="fill: #fff;"/>
  <circle cx="253.44" cy="172.37" r="19.89" style="fill: #fff;"/>
  <circle cx="313.05" cy="172.37" r="19.89" style="fill: #fff;"/>
</svg>