<?xml version="1.0" encoding="UTF-8"?>
<svg width="512" height="512" version="1.1" viewBox="0 0 512 512" xmlns="http://www.w3.org/2000/svg" xmlns:xlink="http://www.w3.org/1999/xlink">
 <defs>
  <linearGradient id="a" x1="374.17" x2="170.64" y1="-112.67" y2="463" gradientUnits="userSpaceOnUse">
   <stop stop-color="#16bbf4" offset="0"/>
   <stop stop-color="#165ff2" offset=".99"/>
  </linearGradient>
  <linearGradient id="b" x1="488.28" x2="474.29" y1="112.58" y2="556.15" xlink:href="#a"/>
  <linearGradient id="linearGradient206" x1="374.17" x2="170.64" y1="-112.67" y2="463" gradientUnits="userSpaceOnUse" xlink:href="#a"/>
 </defs>
 <g transform="matrix(.5796 0 0 .5796 66.717 93.438)">
  <g>
   <path d="m205.08 399.31h292.41a30 30 0 0 0 30-30v-339.31a30 30 0 0 0-30-30h-467.49a30 30 0 0 0-30 30v339.31a30 30 0 0 0 30 30h42a10 10 0 0 1 10 10v84.85a10 10 0 0 0 10.07 10 9.83 9.83 0 0 0 7-2.95l99-99a10 10 0 0 1 7.01-2.9z" fill="url(#linearGradient206)" style="isolation:isolate"/>
   <g fill="#ffffff">
    <path d="m160.43 213c-32.24-20-38.9-71.83-10.42-97.83 18.42-7.6 32.4 12.85 36.62 28.25 10.32 17.45 12.59 41-3.16 56.08a42.81 42.81 0 0 1-23.04 13.5z" style="isolation:isolate"/>
    <path d="m348.22 213.86c-21.73-15.31-45.37-29.75-71.77-35.15-33.1-4.41-70.73 5.36-91.7 32.87-14.83 14.32-18.34 36.94-5.49 53.76 8.52 19.48 5.59 45.78 28.23 56.94 16 15.83 40 1.27 56.32 14.21a7.6 7.6 0 0 0 5.59-5.05c-4.25-31.33 29.21-16.95 45.66-14.61 19.77-11.71 25.43-36.14 34.75-55.58 12.55-13.83 15-35.25-1.59-47.39z" style="isolation:isolate"/>
    <path d="m367 118.1c-21.87 2.52-29.89 28.17-40.34 44.42-10.67 20.94 12.26 38.77 28.48 47.89a19.63 19.63 0 0 0 13-1.07c18.86-10.12 26.86-33.43 27.34-53.79 0.24-16.78-8.3-38.93-28.48-37.45z" style="isolation:isolate"/>
    <path d="m218.7 176c-24-14.47-25.38-45.76-27.32-70.65-0.38-24 35.23-45.5 49.43-20.14 9.8 20.9 21.47 45.47 12.47 68.66-5.68 13.77-20.93 19.73-34.58 22.13z" style="isolation:isolate"/>
    <path d="m306.18 175.87c-28.48 0.84-43.29-32.4-35.93-56.83 0.17-19.58 7.31-53.56 33.53-48.18 28.29 10.94 34.3 49.46 20.82 74.07-6.77 10-6.2 25.11-18.42 30.94z" style="isolation:isolate"/>
   </g>
  </g>
  <path d="m633.15 225.66h-80.66a10 10 0 0 0-10 10v133.65a45 45 0 0 1-45 45h-185.19a10 10 0 0 0-10 10v47a20 20 0 0 0 19.95 20h194.47a6.65 6.65 0 0 1 4.7 1.95l65.83 65.74a6.65 6.65 0 0 0 11.35-4.7v-56.43a6.65 6.65 0 0 1 6.65-6.65h27.9a20 20 0 0 0 20-20v-225.61a20 20 0 0 0-20-19.95z" fill="url(#b)" style="isolation:isolate"/>
 </g>
</svg>
